<svg id="Layer_1" data-name="Layer 1" xmlns="http://www.w3.org/2000/svg" viewBox="0 0 401 86"><defs><style>.cls-1{fill:#eb5e55;}</style></defs><title>ripple</title><path class="cls-1" d="M399.5.5v14c-49.83.12-75.22,17.9-99.79,35.09S249.84,84.5,200,84.5s-75.2-17.75-99.71-34.91S50.33,14.62.5,14.5V.5Z" transform="translate(0.5 0.5)"/><path class="cls-1" d="M400.5,0V15.19H400V14.5h-.5V.5h.5V0Z" transform="translate(0.5 0.5)"/><path class="cls-1" d="M400,14.5v.69h-.5V14.5Z" transform="translate(0.5 0.5)"/><rect class="cls-1" x="400" y="0.5" width="0.5" height="0.5"/><polygon class="cls-1" points="400.5 0 400.5 0.5 400 0.5 400 1 1 1 1 0.5 0.5 0.5 0.5 0 400.5 0"/><path class="cls-1" d="M.5,14.5v.43H0V14.5Z" transform="translate(0.5 0.5)"/><path class="cls-1" d="M.5.5v14H0v.43H-.5V0H0V.5Z" transform="translate(0.5 0.5)"/><rect class="cls-1" x="0.5" y="0.5" width="0.5" height="0.5"/><path class="cls-1" d="M299.71,49.59c24.57-17.19,50-35,99.79-35.09v.69h.5v.31c-49.84,0-75.2,17.75-99.71,34.91S250.16,85.5,200,85.5,124.36,67.66,99.71,50.41,49.84,15.5,0,15.5v-.57H.5V14.5c49.83.12,75.22,17.9,99.79,35.09S150.16,84.5,200,84.5,275.2,66.75,299.71,49.59Z" transform="translate(0.5 0.5)"/></svg>